<?xml version="1.0" encoding="utf-8"?>
<!-- Svg Vector Icons : http://www.onlinewebfonts.com/icon -->
<!DOCTYPE svg PUBLIC "-//W3C//DTD SVG 1.1//EN" "http://www.w3.org/Graphics/SVG/1.1/DTD/svg11.dtd">
<svg version="1.1" xmlns="http://www.w3.org/2000/svg" xmlns:xlink="http://www.w3.org/1999/xlink" x="0px" y="0px" viewBox="0 0 1000 1000" enable-background="new 0 0 1000 1000" xml:space="preserve">
<metadata> Svg Vector Icons : http://www.onlinewebfonts.com/icon </metadata>
<g><g><g><path fill="#9A33F8" d="M638.6,733.9c-1.7-0.3-3.6-0.6-5.3-0.9c-28,35.7-75.2,66.2-128.7,66.2c-54.4,0-102.2-31.6-130-68c-7.7,1.3-15.5,2.7-22.8,4.2C198.3,758.7,89.3,827.7,89.3,990h821.5C910.8,824.3,797.1,755.8,638.6,733.9z"/><path d="M302.3,347.7c-8.6,17.9-13.6,37.9-14.1,56.9c-1.2,42.7-4.3,130.5,36.4,174.6C359.9,672,430,735.4,502.7,737h0.6l0.6-0.1c79.2-3.7,163-86.6,191.1-190.1c2.1-10.8,11-57.2,8.6-80.2h0.8c-0.5-19.5-2.1-37.2-4.5-53.8c-2.7-34.2-11.7-69.1-31.7-99.4c-13.8-23.9-30.6-41.9-49.3-55.1L579.9,10l-80.2,151.3L375.6,92.4l-0.2-0.4l-0.1,0.3l-0.2-0.2l0.2,0.5l-37.1,137.1l-164.5-47.8l128,164L302.3,347.7z M666.5,490.9c-1.3,13.3-3.6,30.7-6.9,47.6c-25.4,93.4-101.4,159-156.7,162c-63.5-1.8-128-70-153.5-162.5l-4.7-17.1l-0.6,0.2c-2.3-13.5-4.1-29.4-4.9-40.3l-0.5-14.5c-0.4-10.1-0.2-19.9,0.3-29.4c8.7-29.1,18-58.3,28.7-78.1c11.5,13.1,123,30.3,211.4,34.5C627.1,395.6,652.9,445.7,666.5,490.9z"/></g></g><g></g><g></g><g></g><g></g><g></g><g></g><g></g><g></g><g></g><g></g><g></g><g></g><g></g><g></g><g></g></g>
</svg>